<?xml version="1.0" encoding="UTF-8"?>
<svg width="1200" height="800" xmlns="http://www.w3.org/2000/svg">
  <rect width="1200" height="800" fill="#f5f7ff"/>
  <g>
    <rect x="20" y="20" width="1160" height="60" rx="8" fill="#ffffff" stroke="#e5e7eb" stroke-width="1"/>
    <rect x="40" y="40" width="200" height="20" rx="4" fill="#2563eb"/>
    <circle cx="1120" cy="50" r="15" fill="#2563eb"/>
  </g>
  <g>
    <rect x="20" y="100" width="280" height="680" rx="8" fill="#ffffff" stroke="#e5e7eb" stroke-width="1"/>
    <rect x="40" y="130" width="240" height="30" rx="4" fill="#e5e7eb"/>
    <rect x="40" y="180" width="240" height="30" rx="4" fill="#e5e7eb"/>
    <rect x="40" y="230" width="240" height="30" rx="4" fill="#e5e7eb"/>
    <rect x="40" y="280" width="240" height="30" rx="4" fill="#e5e7eb"/>
    <rect x="40" y="330" width="240" height="30" rx="4" fill="#e5e7eb"/>
  </g>
  <g>
    <rect x="320" y="100" width="860" height="200" rx="8" fill="#ffffff" stroke="#e5e7eb" stroke-width="1"/>
    <text x="350" y="150" font-family="Arial" font-size="24" font-weight="bold" fill="#111827">Dashboard Overview</text>
    <rect x="350" y="180" width="240" height="80" rx="4" fill="#e5e7eb"/>
    <rect x="620" y="180" width="240" height="80" rx="4" fill="#e5e7eb"/>
    <rect x="890" y="180" width="240" height="80" rx="4" fill="#e5e7eb"/>
  </g>
  <g>
    <rect x="320" y="320" width="860" height="220" rx="8" fill="#ffffff" stroke="#e5e7eb" stroke-width="1"/>
    <text x="350" y="370" font-family="Arial" font-size="24" font-weight="bold" fill="#111827">Recent Appointments</text>
    <rect x="350" y="400" width="800" height="30" rx="4" fill="#e5e7eb"/>
    <rect x="350" y="450" width="800" height="30" rx="4" fill="#e5e7eb"/>
    <rect x="350" y="500" width="800" height="30" rx="4" fill="#e5e7eb"/>
  </g>
  <g>
    <rect x="320" y="560" width="420" height="220" rx="8" fill="#ffffff" stroke="#e5e7eb" stroke-width="1"/>
    <text x="350" y="610" font-family="Arial" font-size="24" font-weight="bold" fill="#111827">Calendar</text>
    <rect x="350" y="630" width="360" height="120" rx="4" fill="#e5e7eb"/>
  </g>
  <g>
    <rect x="760" y="560" width="420" height="220" rx="8" fill="#ffffff" stroke="#e5e7eb" stroke-width="1"/>
    <text x="790" y="610" font-family="Arial" font-size="24" font-weight="bold" fill="#111827">Analytics</text>
    <circle cx="850" cy="700" r="80" fill="#e5e7eb"/>
    <rect x="960" y="650" width="180" height="100" rx="4" fill="#e5e7eb"/>
  </g>
  <text x="600" y="400" font-family="Arial" font-size="48" font-weight="bold" fill="#2563eb" text-anchor="middle">ClinicFlow Dashboard</text>
</svg>